<svg width="18" height="18" viewBox="0 0 18 18" fill="none" xmlns="http://www.w3.org/2000/svg">
<g clip-path="url(#clip0_4_141)">
<path d="M12.75 1.5H5.25C3.17893 1.5 1.5 3.17893 1.5 5.25V12.75C1.5 14.8211 3.17893 16.5 5.25 16.5H12.75C14.8211 16.5 16.5 14.8211 16.5 12.75V5.25C16.5 3.17893 14.8211 1.5 12.75 1.5Z" stroke="#595959" stroke-width="2" stroke-linecap="round" stroke-linejoin="round"/>
<path d="M12 8.5275C12.0926 9.15168 11.986 9.78916 11.6953 10.3493C11.4047 10.9094 10.9449 11.3636 10.3812 11.6473C9.8176 11.9309 9.17886 12.0297 8.55586 11.9294C7.93287 11.8292 7.35734 11.5351 6.91115 11.0889C6.46496 10.6427 6.17082 10.0672 6.07058 9.44416C5.97033 8.82116 6.06907 8.18242 6.35277 7.61878C6.63647 7.05514 7.09066 6.5953 7.65076 6.30468C8.21086 6.01405 8.84834 5.90744 9.47252 6C10.1092 6.09441 10.6987 6.39109 11.1538 6.84623C11.6089 7.30136 11.9056 7.89081 12 8.5275Z" stroke="#595959" stroke-width="2" stroke-linecap="round" stroke-linejoin="round"/>
<path d="M13.125 4.875H13.1325" stroke="#595959" stroke-width="2" stroke-linecap="round" stroke-linejoin="round"/>
</g>
<defs>
<clipPath id="clip0_4_141">
<rect width="18" height="18" fill="white"/>
</clipPath>
</defs>
</svg>
